HIERARCHY
ROOT Hips
{
	OFFSET -3.958830 18.904000 13.208200
	CHANNELS 6 Xposition Yposition Zposition Zrotation Yrotation Xrotation 
	JOINT LHipJoint
	{
		OFFSET 0.000000 0.000000 0.000000
		CHANNELS 3 Zrotation Yrotation Xrotation
		JOINT LeftUpLeg
		{
			OFFSET 1.800000 -1.400000 0.085000
			CHANNELS 3 Zrotation Yrotation Xrotation
			JOINT LeftLeg
			{
				OFFSET 2.215000 -6.000000 0.000000
				CHANNELS 3 Zrotation Yrotation Xrotation
				JOINT LeftFoot
				{
					OFFSET 2.500000 -6.900000 0.000000
					CHANNELS 3 Zrotation Yrotation Xrotation
					JOINT LeftToeBase
					{
						OFFSET 0.200000 -0.500000 1.950000
						CHANNELS 3 Zrotation Yrotation Xrotation
						End Site
						{
							OFFSET 0.000000 0.000000 0.000000
						}
					}
				}
			}
		}
	}
	JOINT RHipJoint
	{
		OFFSET 0.000000 0.000000 0.000000
		CHANNELS 3 Zrotation Yrotation Xrotation
		JOINT RightUpLeg
		{
			OFFSET -1.800000 -1.400000 0.085000
			CHANNELS 3 Zrotation Yrotation Xrotation
			JOINT RightLeg
			{
				OFFSET -2.215000 -6.000000 0.000000
				CHANNELS 3 Zrotation Yrotation Xrotation
				JOINT RightFoot
				{
					OFFSET -2.500000 -6.900000 0.000000
					CHANNELS 3 Zrotation Yrotation Xrotation
					JOINT RightToeBase
					{
						OFFSET -0.200000 -0.500000 1.950000
						CHANNELS 3 Zrotation Yrotation Xrotation
						End Site
						{
							OFFSET 0.000000 0.000000 0.000000
						}
					}
				}
			}
		}
	}
	JOINT LowerBack
	{
		OFFSET 0.000000 0.000000 0.000000
		CHANNELS 3 Zrotation Yrotation Xrotation
		JOINT Spine
		{
			OFFSET -0.087000 1.940000 -0.288900
			CHANNELS 3 Zrotation Yrotation Xrotation
			JOINT Spine1
			{
				OFFSET 0.000000 1.950000 0.060000
				CHANNELS 3 Zrotation Yrotation Xrotation
				JOINT Neck
				{
					OFFSET 0.000000 0.000000 0.000000
					CHANNELS 3 Zrotation Yrotation Xrotation
					JOINT Neck1
					{
						OFFSET 0.000000 1.600000 0.340000
						CHANNELS 3 Zrotation Yrotation Xrotation
						JOINT Head
						{
							OFFSET 0.000000 1.667000 -0.240000
							CHANNELS 3 Zrotation Yrotation Xrotation
							End Site
							{
								OFFSET 0.000000 0.000000 0.000000
							}
						}
					}
				}
				JOINT LeftShoulder
				{
					OFFSET 0.000000 0.000000 0.000000
					CHANNELS 3 Zrotation Yrotation Xrotation
					JOINT LeftArm
					{
						OFFSET 2.700000 1.550000 -0.730000
						CHANNELS 3 Zrotation Yrotation Xrotation
						JOINT LeftForeArm
						{
							OFFSET 5.450000 0.000000 0.000000
							CHANNELS 3 Zrotation Yrotation Xrotation
							JOINT LeftHand
							{
								OFFSET 3.450000 0.000000 0.000000
								CHANNELS 3 Zrotation Yrotation Xrotation
								JOINT LeftHandIndex1
								{
									OFFSET 0.750000 0.000000 0.000000
									CHANNELS 3 Zrotation Yrotation Xrotation
									End Site
									{
										OFFSET 0.000000 0.000000 0.000000
									}
								}
							}
						}
					}
				}
				JOINT RightShoulder
				{
					OFFSET 0.000000 0.000000 0.000000
					CHANNELS 3 Zrotation Yrotation Xrotation
					JOINT RightArm
					{
						OFFSET -2.700000 1.550000 -0.730000
						CHANNELS 3 Zrotation Yrotation Xrotation
						JOINT RightForeArm
						{
							OFFSET -5.450000 0.000000 0.000000
							CHANNELS 3 Zrotation Yrotation Xrotation
							JOINT RightHand
							{
								OFFSET -3.450000 0.000000 0.000000
								CHANNELS 3 Zrotation Yrotation Xrotation
								JOINT RightHandIndex1
								{
									OFFSET -0.750000 0.000000 0.000000
									CHANNELS 3 Zrotation Yrotation Xrotation
									End Site
									{
										OFFSET 0.000000 0.000000 0.000000
									}
								}
							}
						}
					}
				}
			}
		}
	}
}
MOTION
Frames: 7
Frame Time: 0.016667
-1.145500 16.712600 -0.886970 -5.889569 -7.899451 -12.584371 -16.639897 12.411365 5.378858 41.864598 -4.309634 -29.732988 -11.896971 22.972036 55.060365 0.471497 12.850918 -0.191989 -0.228520 -0.204050 -0.139260 17.513780 -7.354068 2.295981 -19.871444 4.520070 -29.572394 7.550444 -20.417681 66.245195 -2.117810 -11.253931 0.475870 -0.247170 0.389100 0.259120 -0.543074 -6.857374 -9.329180 -17.305320 16.242110 40.032495 26.231720 9.141484 13.932688 -6.773890 5.606950 -17.308433 8.273756 -3.582728 57.970929 -3.613490 11.432670 -35.125080 10.903918 -28.013561 3.162063 -4.347909 -7.201154 -21.190391 59.326962 -78.413274 -48.409123 -2.926088 1.301771 1.199230 -0.037810 0.427290 -0.078900 3.736754 28.368225 15.494180 58.278987 8.823523 -27.525001 127.964327 72.541821 88.215924 2.492520 0.646562 -0.476140 0.681750 0.606230 -0.170580 
-1.253550 16.757940 -0.814140 -6.702774 -8.660412 -14.413448 -16.607266 12.904631 4.963008 41.536084 -4.190966 -26.618951 -8.519093 20.709188 54.595917 0.311005 12.378885 -0.078132 -0.222740 -0.194650 -0.126500 17.468557 -7.617985 2.142597 -17.752763 4.728373 -26.362031 7.472801 -20.015240 65.730731 -2.119039 -11.131130 0.526160 -0.228240 0.401110 0.259530 -0.497402 -7.067756 -9.064878 -19.100642 16.705073 38.551230 27.087689 9.094310 15.440521 -7.265187 6.065883 -17.527054 9.317384 -3.641853 59.111948 -3.360950 12.692340 -33.656530 11.994665 -27.368686 3.555189 -4.531186 -6.825481 -21.087325 46.692746 -78.350863 -39.608035 -2.958167 1.961963 1.206980 -0.011880 0.423580 -0.088580 3.511807 27.342289 15.100992 59.815765 7.943345 -26.642989 109.459400 75.531414 65.529952 3.647824 1.916142 -0.492360 0.695200 0.618350 -0.189310 
-1.357210 16.820830 -0.749400 -7.189483 -9.993374 -16.295759 -16.560285 13.413510 4.459387 40.645038 -3.723267 -23.181545 -4.928976 18.363974 53.857580 0.171434 11.873007 0.075217 -0.189310 -0.160360 -0.102610 17.435669 -7.851963 2.068146 -16.090714 5.167130 -23.149717 7.913549 -19.657264 64.803677 -2.116194 -10.986266 0.591112 -0.188720 0.428420 0.257870 -0.476158 -7.256677 -8.773679 -20.933956 17.488629 36.617967 28.106527 9.304598 17.473588 -8.031898 6.039582 -17.426656 9.436738 -3.316375 59.420189 -2.468360 13.505940 -32.044300 12.942421 -26.745833 3.878586 -5.558054 -7.223908 -20.768788 39.784439 -76.303856 -33.746849 -2.990699 2.252421 1.206000 0.015670 0.416450 -0.071930 3.916926 26.961476 15.012511 59.332569 7.020712 -19.070466 78.590463 84.540534 40.314788 2.892530 0.199085 -0.508990 0.726570 0.608650 -0.197360 
-1.461450 16.882850 -0.684920 -7.758291 -11.173912 -17.855084 -16.513323 13.855528 3.978147 39.962178 -3.001212 -19.909447 -1.509048 16.051103 52.395964 0.014660 11.317513 0.234786 -0.146140 -0.116140 -0.062910 17.411906 -8.062362 2.036937 -14.578825 5.536195 -19.848181 8.837652 -19.489738 63.378361 -2.088114 -10.832332 0.621249 -0.121980 0.423000 0.240040 -0.461397 -7.372421 -8.499583 -22.486201 17.912509 34.197888 28.878139 9.580454 19.471226 -8.713694 6.229707 -16.724882 9.576627 -3.171702 58.516608 -1.711870 13.906850 -30.229490 13.715085 -25.824345 3.957805 -6.983056 -9.231404 -19.774740 36.428963 -72.966654 -29.888958 -3.052074 2.393083 1.188040 0.031350 0.392440 -0.077920 4.304155 26.269461 14.872765 57.998297 6.734905 -23.802977 54.277705 77.694601 22.280011 1.429897 -1.224449 -0.531500 0.727220 0.592650 -0.220370 
-1.551050 16.936030 -0.621990 -8.485271 -12.218841 -18.896911 -16.412477 14.122572 3.552793 39.395504 -2.242681 -17.194403 1.794945 13.912036 50.968385 -0.078479 10.819989 0.431901 -0.108460 -0.074560 -0.075430 17.437943 -8.311084 2.125733 -13.493028 5.867389 -17.361876 10.270372 -19.759474 61.972126 -2.085747 -10.789170 0.665024 -0.069900 0.470150 0.222880 -0.593204 -7.130025 -8.307513 -22.395318 17.357107 32.274055 27.997540 9.740225 20.553888 -9.194664 6.066397 -15.953992 8.701027 -2.595270 57.686024 -0.297200 13.640500 -27.719940 14.306477 -24.893660 4.007729 -7.461663 -11.066182 -18.172164 30.807038 -70.290100 -24.911353 -3.107469 2.545018 1.156760 0.065420 0.351260 -0.030010 4.535097 25.635947 14.403923 57.421523 7.148267 -24.850973 36.512463 71.220886 9.759551 1.414541 -1.159836 -0.551830 0.749760 0.565110 -0.207370 
-1.632170 16.990210 -0.561800 -8.918435 -11.980169 -18.674502 -16.282061 14.231397 3.190524 37.868992 -1.911470 -16.368300 4.946109 11.798281 49.718234 -0.147125 10.331193 0.664816 -0.148110 -0.110940 -0.143250 17.491582 -8.623514 2.263936 -13.257168 5.706663 -16.290369 11.902432 -20.239895 60.181824 -2.020435 -10.739069 0.727270 -0.056160 0.586560 0.179480 -0.823960 -6.610599 -8.098774 -22.284050 16.360591 29.450341 26.870606 9.471732 21.149398 -9.710453 6.364577 -15.485249 9.292016 -2.559226 56.358103 1.280690 13.095150 -23.037720 15.570753 -24.384477 4.070837 -8.757173 -13.593726 -16.426657 28.614198 -66.577183 -21.848533 -3.210335 2.537411 1.074180 0.143160 0.256520 0.017470 4.153594 24.857468 13.762408 57.482684 8.118213 -23.625346 23.391406 63.982421 2.275233 1.472508 -1.042898 -0.599370 0.804260 0.567310 -0.173110 
-1.697370 17.039610 -0.491860 -9.183703 -11.870179 -17.730554 -16.151714 14.218614 2.871008 36.345721 -1.383593 -15.735614 7.253869 10.224159 47.898219 -0.217356 9.894728 0.868704 -0.213310 -0.204070 -0.235050 17.561701 -8.921720 2.443405 -13.316457 5.760654 -16.242700 13.454949 -20.680296 58.697102 -1.946583 -10.746155 0.758148 -0.081570 0.704270 0.175040 -1.085004 -5.919638 -7.910594 -21.899126 15.198121 25.975070 25.034268 9.265384 21.109717 -9.629812 6.640834 -15.196593 9.994328 -2.499480 55.545098 2.371280 12.162060 -18.157030 16.140800 -24.160241 4.244499 -10.530570 -16.116644 -14.439389 27.772985 -63.557118 -20.067601 -3.338334 2.490822 1.000450 0.229710 0.148380 0.044860 3.432946 24.247950 13.268123 58.507708 9.410416 -20.957288 13.128093 55.897317 -1.857154 1.510094 -0.947190 -0.633410 0.813690 0.607500 -0.146720 
